<svg xmlns="http://www.w3.org/2000/svg" viewBox="0 0 616 397" role="img" aria-label="Josh Harvey circuit JH monogram for dark backgrounds"><title>Josh Harvey circuit JH monogram for dark backgrounds</title><path fill="#ffffff" d="M 238 6 L 340 6 C 352 6 360 14 360 28 L 360 273 C 360 349 320 386 242 386 C 204 386 168 372 149 354 C 133 340 137 318 152 310 L 167 299 C 177 292 184 295 195 304 C 207 315 222 319 239 319 C 273 319 291 304 291 274 L 291 79 L 238 79 Z"/><path fill="#ffffff" d="M 534 6 L 607 6 L 607 385 L 534 385 L 534 215 L 388 215 L 388 140 L 534 140 Z"/><g fill="none" stroke="#087def" stroke-width="14"><circle cx="87" cy="136" r="18"/><circle cx="28" cy="197" r="18"/><circle cx="87" cy="257" r="18"/><path d="M105 136H262M46 197H137L151 183H262M105 257H262"/></g></svg>
